<?xml version="1.0" encoding="UTF-8" standalone="no"?>
<!-- Created with Inkscape (http://www.inkscape.org/) -->

<svg
    xmlns:dc="http://purl.org/dc/elements/1.1/"
    xmlns:cc="http://creativecommons.org/ns#"
    xmlns:rdf="http://www.w3.org/1999/02/22-rdf-syntax-ns#"
    xmlns:sodipodi="http://sodipodi.sourceforge.net/DTD/sodipodi-0.dtd"
    xmlns:inkscape="http://www.inkscape.org/namespaces/inkscape"
    xmlns="http://www.w3.org/2000/svg"
    version="1.1"
    id="svg2"
    width="225"
    height="225"
    viewBox="0 0 225 225"
    sodipodi:docname="docicon.svg"
    inkscape:version="0.92.3 (2405546, 2018-03-11)">
    <metadata
        id="metadata8">
        <rdf:RDF>
            <cc:Work
                rdf:about="">
                <dc:format>image/svg+xml</dc:format>
                <dc:type
                    rdf:resource="http://purl.org/dc/dcmitype/StillImage"/>
                <dc:title></dc:title>
            </cc:Work>
        </rdf:RDF>
    </metadata>
    <defs
        id="defs6"/>
    <sodipodi:namedview
        pagecolor="#ffffff"
        bordercolor="#666666"
        borderopacity="1"
        objecttolerance="10"
        gridtolerance="10"
        guidetolerance="10"
        inkscape:pageopacity="0"
        inkscape:pageshadow="2"
        inkscape:window-width="1920"
        inkscape:window-height="1016"
        id="namedview4"
        showgrid="false"
        inkscape:zoom="2.9667058"
        inkscape:cx="120.41448"
        inkscape:cy="98.281716"
        inkscape:window-x="0"
        inkscape:window-y="27"
        inkscape:window-maximized="1"
        inkscape:current-layer="svg2"/>
    <g
        id="g12"
        transform="translate(-3.7487717e-7,0.67414867)">
        <path
            style="fill:#f8f8f9"
            d="M 0,112.5 V 0 H 112.5 225 V 112.5 225 H 112.5 0 Z"
            id="path16"
            inkscape:connector-curvature="0"/>
        <path
            style="fill:#17213a"
            d="M 30.121495,223.29009 C 23.996505,220.27271 22.787303,217.00796 23.34718,205 c 0.8778,-18.82663 7.455987,-33.00882 22.059957,-47.55999 6.992956,-6.96767 10.999822,-10.0402 17.350237,-13.30446 4.541555,-2.33446 8.704055,-3.9684 9.25,-3.63099 0.582364,0.35992 0.98751,6.47874 0.980247,14.80446 L 72.975243,169.5 69.51111,171.7438 C 56.037923,180.47068 62.253919,202 78.246754,202 87.098049,202 93.22055,197.33581 95.08361,189.17351 96.412967,183.34942 94.480423,178.20567 88.8986,172.7112 L 84,167.88926 v -9.47601 c 0,-7.37404 0.323022,-9.59997 1.456226,-10.03483 0.800924,-0.30734 6.313424,2.3487 12.25,5.90231 5.936574,3.5536 11.750634,6.95525 12.920134,7.5592 1.82959,0.94484 3.89891,0.0449 14.82705,-6.44834 6.98539,-4.15053 13.34103,-7.30071 14.12365,-7.00039 1.0923,0.41915 1.42294,2.75163 1.42294,10.03799 0,10.36471 0.19074,9.9756 -7.10318,14.49092 -3.34035,2.06786 -5.3293,4.30676 -7.25,8.1611 C 124.05924,186.27381 124,186.82472 124,205.69634 V 225 L 78.75,224.9772 C 38.591306,224.957 33.119867,224.76716 30.121495,223.29006 Z M 135.00374,206.75 c 0.003,-16.09076 0.22593,-18.61437 1.88173,-21.32969 3.85668,-6.32451 12.77465,-6.98981 17.55425,-1.30958 2.54965,3.03008 2.56028,3.12131 2.56028,21.966 V 225 h -11 -11 l 0.004,-18.25 z m 33.82132,-1.5 C 168.54616,188.30441 168.2353,185.00302 166.63584,182 164.0337,177.11444 160.15211,173.15223 155.75,170.88809 L 152,168.95935 v -13.92066 c 0,-8.13281 0.41271,-14.17572 0.99263,-14.53413 0.54594,-0.33741 4.70844,1.30996 9.25,3.66083 6.3488,3.28637 10.33764,6.3615 17.25762,13.30446 4.95014,4.96658 10.51451,11.6126 12.36527,14.76894 8.79062,14.99177 12.98383,38.41479 8.24865,46.07649 C 196.77943,223.71098 192.93436,225 180.17393,225 H 169.15012 Z M 74.381202,188.45904 c -2.12408,-3.24176 -0.622638,-7.10936 3.125084,-8.04997 5.036686,-1.26413 8.627033,5.31475 4.922285,9.0195 -2.395909,2.39591 -6.137617,1.94512 -8.047369,-0.96953 z m 24.534564,-46.61766 c -7.378671,-4.42836 -13.746375,-8.56677 -14.150453,-9.19647 -0.404078,-0.6297 -0.741578,-3.26783 -0.75,-5.86252 -0.01472,-4.53606 -0.22474,-4.87572 -5.457588,-8.82656 C 69.347779,111.00226 61.884592,100.22168 58.512151,89 56.306812,81.661812 55.232922,59.629199 56.978098,57.526391 58.085344,56.192241 65.068255,56 112.42244,56 c 40.80477,0 54.47376,0.296199 55.37756,1.2 1.49336,1.493362 1.58579,15.829478 0.15875,24.62366 -2.24596,13.840801 -10.79603,28.15653 -21.32548,35.70612 -5.42248,3.8879 -5.5386,4.07389 -5.60059,8.97022 -0.0348,2.75 -0.39391,5.51034 -0.79799,6.13409 -0.61716,0.95266 -19.62612,12.82911 -25.95526,16.21636 -1.61796,0.86591 -4.22025,-0.32128 -15.363664,-7.00907 z M 58.306185,41.500631 C 60.213852,29.745055 74.357524,12.323809 87,6.157474 c 22.32677,-10.8898254 47.41779,-6.86371343 64.74176,10.388482 7.32238,7.292039 13.34462,17.502112 14.86618,25.204044 L 167.25,45 H 112.49416 57.738315 Z"
            id="path14"
            inkscape:connector-curvature="0"/>
    </g>
</svg>
